<?xml version="1.0" standalone="no"?>
<!DOCTYPE svg PUBLIC "-//W3C//DTD SVG 20010904//EN"
 "http://www.w3.org/TR/2001/REC-SVG-20010904/DTD/svg10.dtd">
<svg version="1.0" xmlns="http://www.w3.org/2000/svg"
 width="244.000000pt" height="98.000000pt" viewBox="0 0 244.000000 98.000000"
 preserveAspectRatio="xMidYMid meet">

<g transform="translate(0.000000,98.000000) scale(0.100000,-0.100000)"
fill="#000000" stroke="none">
<path d="M860 835 c-3 -37 -3 -47 3 -84 1 -8 -3 -16 -10 -18 -7 -3 -15 10 -19
31 -5 30 -10 35 -28 31 -87 -18 -174 -28 -251 -30 -51 -1 -102 -7 -117 -15
-28 -13 -36 -34 -18 -45 17 -11 120 15 140 35 21 21 30 16 30 -18 0 -17 -4
-22 -14 -19 -8 3 -22 -1 -33 -9 -17 -14 -16 -15 15 -11 17 2 32 0 32 -4 0 -3
13 -12 30 -19 22 -9 33 -23 42 -52 9 -30 15 -37 27 -32 9 4 42 16 74 28 36 13
55 26 52 34 -7 18 45 4 69 -18 18 -18 18 -18 -22 -13 -46 6 -89 -7 -142 -46
-19 -14 -37 -26 -39 -28 -2 -1 1 -9 8 -17 9 -11 8 -15 -4 -20 -8 -3 -15 -18
-15 -34 0 -18 -10 -37 -27 -53 l-27 -24 22 29 c12 16 22 34 22 40 0 6 -10 -5
-22 -24 -12 -19 -21 -39 -20 -43 1 -4 -17 -17 -40 -27 -24 -11 -35 -20 -24
-20 10 0 33 9 51 20 l33 20 4 -31 c4 -24 0 -34 -18 -46 -20 -13 -25 -13 -49 3
-27 17 -27 17 -61 -20 -24 -27 -34 -46 -34 -70 0 -42 -19 -58 -62 -54 -29 3
-33 6 -33 33 0 28 2 30 38 30 31 0 37 3 37 22 0 12 5 25 11 29 8 4 7 9 -2 14
-7 5 -13 22 -14 39 -2 38 -9 46 -25 26 -19 -23 -43 -19 -35 5 5 17 1 21 -25
27 -41 8 -48 28 -20 58 18 19 25 41 29 99 4 40 12 81 20 90 8 10 11 26 7 42
-9 33 -27 29 -153 -31 -179 -85 -258 -197 -208 -294 25 -49 116 -121 210 -166
411 -197 1250 -220 1775 -49 182 60 315 146 355 230 63 134 -96 279 -400 363
-252 70 -505 96 -851 88 -132 -3 -245 -2 -251 1 -6 4 -13 18 -16 32 -3 19 -5
15 -7 -15z m37 -92 c3 -23 1 -43 -5 -47 -7 -4 -10 6 -9 26 1 18 -2 44 -7 58
-6 19 -5 22 4 14 6 -6 14 -30 17 -51z m-406 -9 c-25 -8 -47 -12 -49 -9 -5 5
56 23 78 23 8 0 -5 -6 -29 -14z m199 -125 c0 -6 -4 -7 -10 -4 -5 3 -10 11 -10
16 0 6 5 7 10 4 6 -3 10 -11 10 -16z m1210 -25 c0 -13 -36 -33 -59 -34 -23 0
-24 1 -6 20 17 18 65 28 65 14z m170 -52 c13 -11 20 -24 16 -30 -9 -16 -66
-15 -66 0 0 9 -3 8 -12 -1 -8 -8 -9 -15 -3 -17 66 -26 81 -60 45 -99 -43 -46
-150 -38 -150 10 0 18 66 21 72 3 2 -6 10 -8 17 -4 16 10 -2 32 -34 40 -33 9
-42 42 -18 74 32 42 96 54 133 24z m-542 -90 l3 -92 -36 0 c-24 0 -35 4 -35
15 0 8 -7 15 -15 15 -9 0 -18 -7 -21 -15 -5 -11 -23 -15 -76 -15 l-70 0 5 28
c3 15 8 36 11 47 4 11 -3 -1 -15 -27 -20 -44 -24 -48 -56 -48 l-35 0 6 43 c4
30 3 36 -3 22 -5 -11 -10 -30 -10 -42 -1 -22 -5 -23 -76 -23 -43 0 -75 4 -75
10 0 12 -27 13 -32 1 -5 -14 -80 -21 -76 -7 2 6 22 48 46 94 l43 83 47 -3 47
-3 4 -80 3 -80 23 80 22 80 52 3 52 3 -5 -38 -6 -38 17 38 c15 35 18 37 64 37
27 0 49 -3 49 -7 0 -5 -9 -42 -20 -83 -10 -41 -18 -75 -17 -77 2 -1 23 36 47
82 42 78 47 84 80 88 19 2 40 3 45 2 6 -1 11 -42 13 -93z m196 79 c10 -11 15
-25 11 -30 -8 -14 -65 -14 -65 -1 0 26 -28 5 -38 -29 -15 -50 -15 -74 1 -68 7
2 11 15 9 30 -3 25 -1 27 37 27 45 0 48 -6 30 -59 -9 -24 -17 -31 -38 -31 -14
0 -43 -2 -65 -3 -50 -3 -61 14 -52 78 11 68 49 105 109 105 31 0 49 -6 61 -19z
m166 -71 l0 -90 -35 0 c-24 0 -35 5 -35 15 0 8 -7 15 -15 15 -9 0 -18 -7 -21
-15 -6 -14 -74 -23 -74 -10 0 3 21 43 46 90 l46 85 44 0 44 0 0 -90z m247 74
c8 -21 -13 -42 -28 -27 -13 13 -5 43 11 43 6 0 13 -7 17 -16z m-1169 -16 c-2
-19 -10 -24 -40 -26 -45 -4 -51 -22 -7 -22 43 0 37 -34 -8 -38 -27 -3 -32 -8
-40 -40 -8 -34 -12 -37 -46 -40 -21 -2 -37 1 -37 7 0 13 40 163 47 174 2 4 33
7 69 7 62 0 65 -1 62 -22z m-242 -44 c-5 -40 -3 -48 19 -68 32 -30 32 -36 -1
-27 -19 5 -28 14 -30 31 -1 14 -3 30 -4 35 -3 14 11 75 18 75 2 0 2 -21 -2
-46z m962 -149 c42 1 52 -1 47 -13 -3 -7 -5 -18 -5 -23 0 -5 -22 -9 -50 -9
-41 0 -50 3 -51 18 0 14 -2 14 -9 -3 l-9 -20 -1 20 c-1 19 -1 19 -14 2 -12
-16 -48 -17 -427 -22 -228 -2 -405 -2 -394 1 11 4 22 10 25 14 5 8 385 20 631
20 140 0 147 1 152 21 5 19 8 19 29 6 13 -8 45 -13 76 -12z m205 12 c4 3 7 2
7 -4 0 -13 73 -5 78 8 2 5 8 9 13 9 4 0 6 -6 3 -14 -4 -10 2 -12 20 -9 27 6
32 -2 16 -27 -7 -11 -31 -15 -100 -16 -78 0 -90 2 -84 15 3 9 9 24 11 34 4 12
9 15 18 7 6 -5 15 -7 18 -3z m-63 -32 c0 -22 -4 -25 -34 -25 -60 0 -60 46 -1
48 31 1 35 -2 35 -23z m-1393 1 c-3 -7 0 -19 6 -25 8 -8 -1 -11 -33 -10 -34 0
-40 2 -25 9 12 4 27 15 34 24 16 20 25 21 18 2z m207 -22 c3 -9 6 -23 6 -32 0
-13 9 -17 37 -17 32 0 39 -4 41 -24 4 -27 -12 -41 -48 -41 -35 0 -50 17 -50
58 0 18 -5 42 -10 53 -8 15 -7 19 4 19 7 0 17 -7 20 -16z"/>
<path d="M1457 457 c-11 -29 -9 -43 4 -30 6 6 9 19 7 29 -3 18 -4 18 -11 1z"/>
<path d="M1026 435 c-3 -8 -1 -15 4 -15 6 0 10 7 10 15 0 8 -2 15 -4 15 -2 0
-6 -7 -10 -15z"/>
<path d="M1817 457 c-11 -29 -9 -43 4 -30 6 6 9 19 7 29 -3 18 -4 18 -11 1z"/>
<path d="M430 666 c0 -9 7 -12 21 -9 16 4 17 8 7 14 -19 13 -28 11 -28 -5z"/>
<path d="M585 650 c10 -11 20 -18 23 -15 7 6 -18 35 -31 35 -5 0 -2 -9 8 -20z"/>
<path d="M574 615 c-1 -15 3 -25 12 -25 17 0 18 11 2 33 -12 16 -13 15 -14 -8z"/>
<path d="M482 589 c2 -6 8 -10 13 -10 5 0 11 4 13 10 2 6 -4 11 -13 11 -9 0
-15 -5 -13 -11z"/>
<path d="M435 541 c-3 -5 -2 -12 3 -15 5 -3 9 1 9 9 0 17 -3 19 -12 6z"/>
<path d="M586 513 c-6 -14 -5 -15 5 -6 7 7 10 15 7 18 -3 3 -9 -2 -12 -12z"/>
<path d="M385 449 c4 -6 0 -16 -9 -22 -13 -10 -10 -14 20 -29 l34 -18 -20 40
c-11 22 -23 40 -26 40 -3 0 -2 -5 1 -11z"/>
</g>
</svg>
